<svg xmlns="http://www.w3.org/2000/svg" viewBox="0 0 500 500"><g id="freepik--background-simple--inject-53"><path d="M468.5,284.16c-14.72,39.43-44.8,82.11-87.13,94.75-64,19.1-71.6,70.65-186.16,65.87a230.92,230.92,0,0,1-49.54-7.26,194.41,194.41,0,0,1-23.29-7.75C55.45,402.66,20.54,343,17.64,280.58c-3.82-82.11,53.46-121.24,90.69-144.15s82.1-111.7,194.76-107.89A224.06,224.06,0,0,1,354,36c37.91,10.26,76.44,33,98.84,66.12q2.52,3.75,4.82,7.65C487.63,160.59,488.58,230.4,468.5,284.16Z" style="fill:#92E3A9"></path><path d="M468.5,284.16c-14.72,39.43-44.8,82.11-87.13,94.75-64,19.1-71.6,70.65-186.16,65.87a230.92,230.92,0,0,1-49.54-7.26,194.41,194.41,0,0,1-23.29-7.75C55.45,402.66,20.54,343,17.64,280.58c-3.82-82.11,53.46-121.24,90.69-144.15s82.1-111.7,194.76-107.89A224.06,224.06,0,0,1,354,36c37.91,10.26,76.44,33,98.84,66.12q2.52,3.75,4.82,7.65C487.63,160.59,488.58,230.4,468.5,284.16Z" style="fill:#fff;opacity:0.7000000000000001"></path></g><g id="freepik--Markets--inject-53"><path d="M381.09,325.64l.16-9.72h1.84l1.38,6.74,1.44-6.74h1.78l.18,9.72h-1.32l-.15-6.75L385,325.64H384l-1.41-6.77-.13,6.77Z" style="fill:#263238"></path><path d="M388.81,325.64l1.95-9.72h1.89l2,9.72H393l-.38-2.24h-1.69l-.4,2.24Zm2.25-3.37h1.32l-.66-4.08Z" style="fill:#263238"></path><path d="M395.52,325.64v-9.72h2.33a5,5,0,0,1,1.66.24,1.85,1.85,0,0,1,1,.8,2.79,2.79,0,0,1,.36,1.53,4.86,4.86,0,0,1-.11,1.06,1.91,1.91,0,0,1-.37.8,1.65,1.65,0,0,1-.71.51l1.36,4.78h-1.78l-1.17-4.45h-.82v4.45Zm1.78-5.56h.55a1.88,1.88,0,0,0,.82-.15.87.87,0,0,0,.44-.48,2.27,2.27,0,0,0,.13-.85,1.86,1.86,0,0,0-.27-1.1,1.21,1.21,0,0,0-1-.36h-.65Z" style="fill:#263238"></path><path d="M402.23,325.64v-9.72H404v4.28l1.92-4.28h1.69l-1.86,4.35,2.05,5.37h-1.76l-1.64-4.42-.4.74v3.68Z" style="fill:#263238"></path><path d="M408.51,325.64v-9.72h4.08v1.25h-2.31V320h1.81v1.24h-1.81v3.21h2.33v1.22Z" style="fill:#263238"></path><path d="M414.61,325.64v-8.41h-1.54v-1.31h4.84v1.31h-1.52v8.41Z" style="fill:#263238"></path><path d="M421.25,325.78a2.84,2.84,0,0,1-1.46-.35,2.08,2.08,0,0,1-.89-1,4.42,4.42,0,0,1-.34-1.62l1.53-.3a4.76,4.76,0,0,0,.13,1,1.47,1.47,0,0,0,.35.66.83.83,0,0,0,.62.24.69.69,0,0,0,.61-.26,1.11,1.11,0,0,0,.18-.65,1.72,1.72,0,0,0-.29-1.05,4.34,4.34,0,0,0-.76-.81l-1.23-1.08a3.8,3.8,0,0,1-.82-1,2.81,2.81,0,0,1-.31-1.35,2.31,2.31,0,0,1,.68-1.78,2.55,2.55,0,0,1,1.83-.62,2.7,2.7,0,0,1,1.14.21,1.77,1.77,0,0,1,.73.58,2.66,2.66,0,0,1,.4.85,5.09,5.09,0,0,1,.17,1l-1.51.26a4.79,4.79,0,0,0-.11-.82,1.18,1.18,0,0,0-.27-.56.8.8,0,0,0-.58-.2.74.74,0,0,0-.61.25,1,1,0,0,0-.21.65,1.54,1.54,0,0,0,.2.81,3.43,3.43,0,0,0,.59.65l1.21,1.07a4.86,4.86,0,0,1,1,1.18,3.06,3.06,0,0,1,.43,1.64,2.5,2.5,0,0,1-.31,1.23,2.17,2.17,0,0,1-.85.85A2.63,2.63,0,0,1,421.25,325.78Z" style="fill:#263238"></path><rect x="393.4" y="257.66" width="39.24" height="47.54" style="fill:#263238;stroke:#263238;stroke-linecap:round;stroke-linejoin:round"></rect><rect x="377.71" y="257.66" width="39.24" height="47.54" style="fill:#fff;stroke:#263238;stroke-linecap:round;stroke-linejoin:round"></rect><rect x="393.4" y="293.86" width="39.24" height="11.34" style="fill:#fff;stroke:#263238;stroke-linecap:round;stroke-linejoin:round"></rect><rect x="377.71" y="293.86" width="39.24" height="11.34" style="fill:#fff;stroke:#263238;stroke-linecap:round;stroke-linejoin:round"></rect><rect x="391.7" y="285.19" width="11.27" height="20.02" style="fill:#fff;stroke:#263238;stroke-linecap:round;stroke-linejoin:round"></rect><polygon points="378.37 277.73 369.87 277.73 376.02 257.66 384.52 257.66 378.37 277.73" style="fill:#fff;stroke:#263238;stroke-linecap:round;stroke-linejoin:round"></polygon><path d="M369.87,276.86h8.5a0,0,0,0,1,0,0v3.88a4.12,4.12,0,0,1-4.12,4.12H374a4.12,4.12,0,0,1-4.12-4.12v-3.88A0,0,0,0,1,369.87,276.86Z" style="fill:#fff;stroke:#263238;stroke-linecap:round;stroke-linejoin:round"></path><polygon points="386.6 277.73 378.1 277.73 384.25 257.66 392.75 257.66 386.6 277.73" style="fill:#263238;stroke:#263238;stroke-linecap:round;stroke-linejoin:round"></polygon><path d="M378.1,276.86h8.5a0,0,0,0,1,0,0v3.88a4.12,4.12,0,0,1-4.12,4.12h-.27a4.12,4.12,0,0,1-4.12-4.12v-3.88A0,0,0,0,1,378.1,276.86Z" style="fill:#263238;stroke:#263238;stroke-linecap:round;stroke-linejoin:round"></path><polygon points="394.83 277.73 386.32 277.73 392.47 257.66 400.98 257.66 394.83 277.73" style="fill:#fff;stroke:#263238;stroke-linecap:round;stroke-linejoin:round"></polygon><path d="M386.32,276.86h8.5a0,0,0,0,1,0,0v3.88a4.12,4.12,0,0,1-4.12,4.12h-.27a4.12,4.12,0,0,1-4.12-4.12v-3.88A0,0,0,0,1,386.32,276.86Z" style="fill:#fff;stroke:#263238;stroke-linecap:round;stroke-linejoin:round"></path><polygon points="403.05 277.73 394.55 277.73 400.7 257.66 409.2 257.66 403.05 277.73" style="fill:#263238;stroke:#263238;stroke-linecap:round;stroke-linejoin:round"></polygon><path d="M394.55,276.86h8.5a0,0,0,0,1,0,0v3.88a4.12,4.12,0,0,1-4.12,4.12h-.27a4.12,4.12,0,0,1-4.12-4.12v-3.88A0,0,0,0,1,394.55,276.86Z" style="fill:#263238;stroke:#263238;stroke-linecap:round;stroke-linejoin:round"></path><polygon points="411.28 277.73 402.78 277.73 408.93 257.66 417.43 257.66 411.28 277.73" style="fill:#fff;stroke:#263238;stroke-linecap:round;stroke-linejoin:round"></polygon><path d="M402.78,276.86h8.5a0,0,0,0,1,0,0v3.88a4.12,4.12,0,0,1-4.12,4.12h-.27a4.12,4.12,0,0,1-4.12-4.12v-3.88A0,0,0,0,1,402.78,276.86Z" style="fill:#fff;stroke:#263238;stroke-linecap:round;stroke-linejoin:round"></path><polyline points="366.76 260.98 389.44 240.94 408.73 248.5 431.79 232.62" style="fill:none;stroke:#000;stroke-linecap:round;stroke-linejoin:round"></polyline><circle cx="431.79" cy="232.62" r="1.89" style="fill:#263238;stroke:#263238;stroke-linecap:round;stroke-linejoin:round"></circle><circle cx="409.1" cy="248.5" r="1.89" style="fill:#263238;stroke:#263238;stroke-linecap:round;stroke-linejoin:round"></circle><circle cx="389.44" cy="240.94" r="1.89" style="fill:#263238;stroke:#263238;stroke-linecap:round;stroke-linejoin:round"></circle><circle cx="366.76" cy="260.98" r="1.89" style="fill:#263238;stroke:#263238;stroke-linecap:round;stroke-linejoin:round"></circle></g><g id="freepik--Customers--inject-53"><path d="M388.72,210.85a2.94,2.94,0,0,1-1.68-.42,2.2,2.2,0,0,1-.84-1.14,5.36,5.36,0,0,1-.24-1.68v-3.46a5.56,5.56,0,0,1,.24-1.73,2.06,2.06,0,0,1,.84-1.13,3.11,3.11,0,0,1,1.68-.4,3.06,3.06,0,0,1,1.58.35,1.85,1.85,0,0,1,.81,1,4.21,4.21,0,0,1,.24,1.48v.82h-1.71v-.84a5.76,5.76,0,0,0,0-.75.89.89,0,0,0-.23-.53.86.86,0,0,0-.64-.2.93.93,0,0,0-.67.21,1,1,0,0,0-.27.56,4.92,4.92,0,0,0-.06.8V208a3.52,3.52,0,0,0,.09.87.9.9,0,0,0,.3.51.94.94,0,0,0,.61.18.8.8,0,0,0,.63-.21,1.06,1.06,0,0,0,.23-.56,4.65,4.65,0,0,0,.05-.78v-.88h1.71v.78a4.73,4.73,0,0,1-.23,1.53,2,2,0,0,1-.8,1A2.89,2.89,0,0,1,388.72,210.85Z" style="fill:#263238"></path><path d="M395.25,210.85a3.07,3.07,0,0,1-1.68-.39,2,2,0,0,1-.83-1.13,6,6,0,0,1-.23-1.75V201h1.73v6.78a5.81,5.81,0,0,0,.06.86,1.21,1.21,0,0,0,.28.65.87.87,0,0,0,.67.24.84.84,0,0,0,.67-.24,1.29,1.29,0,0,0,.28-.65,5.76,5.76,0,0,0,.07-.86V201H398v6.58a5.67,5.67,0,0,1-.23,1.75,2,2,0,0,1-.82,1.13A3,3,0,0,1,395.25,210.85Z" style="fill:#263238"></path><path d="M401.82,210.85a2.84,2.84,0,0,1-1.46-.34,2.17,2.17,0,0,1-.89-1,4.42,4.42,0,0,1-.34-1.62l1.53-.3a4.16,4.16,0,0,0,.14,1,1.42,1.42,0,0,0,.34.66.84.84,0,0,0,.62.24.69.69,0,0,0,.61-.26,1.12,1.12,0,0,0,.18-.66,1.77,1.77,0,0,0-.28-1,5.23,5.23,0,0,0-.77-.82l-1.23-1.08a3.67,3.67,0,0,1-.82-1,2.75,2.75,0,0,1-.3-1.35,2.28,2.28,0,0,1,.67-1.77,2.58,2.58,0,0,1,1.83-.63,2.7,2.7,0,0,1,1.14.21,1.79,1.79,0,0,1,.73.59,2.61,2.61,0,0,1,.4.84,4.65,4.65,0,0,1,.17,1l-1.51.27a5.93,5.93,0,0,0-.1-.82,1.18,1.18,0,0,0-.28-.56.76.76,0,0,0-.58-.21.74.74,0,0,0-.61.26,1,1,0,0,0-.21.64,1.43,1.43,0,0,0,.21.81,3.08,3.08,0,0,0,.58.66l1.22,1.07a4.82,4.82,0,0,1,1,1.18,3,3,0,0,1,.43,1.64,2.39,2.39,0,0,1-.31,1.23,2.24,2.24,0,0,1-.85.85A2.6,2.6,0,0,1,401.82,210.85Z" style="fill:#263238"></path><path d="M406.27,210.72v-8.41h-1.54V201h4.84v1.31h-1.52v8.41Z" style="fill:#263238"></path><path d="M413.05,210.85a3,3,0,0,1-1.64-.38,2.15,2.15,0,0,1-.88-1.1,5.13,5.13,0,0,1-.26-1.71V204a5,5,0,0,1,.26-1.69,2,2,0,0,1,.88-1.07,3.13,3.13,0,0,1,1.64-.38,3.18,3.18,0,0,1,1.67.38,2.07,2.07,0,0,1,.87,1.07,4.72,4.72,0,0,1,.27,1.69v3.64a4.79,4.79,0,0,1-.27,1.69,2.18,2.18,0,0,1-.87,1.1A3.08,3.08,0,0,1,413.05,210.85Zm0-1.3a.84.84,0,0,0,.94-.72,3.45,3.45,0,0,0,.07-.74v-4.47a3.23,3.23,0,0,0-.07-.73.91.91,0,0,0-.28-.51,1,1,0,0,0-.66-.19.9.9,0,0,0-.63.19.87.87,0,0,0-.29.51,3.23,3.23,0,0,0-.07.73v4.47a4.27,4.27,0,0,0,.06.74.89.89,0,0,0,.29.52A.93.93,0,0,0,413.05,209.55Z" style="fill:#263238"></path><path d="M417.15,210.72l.16-9.72h1.84l1.38,6.73L422,201h1.78l.18,9.72h-1.32l-.15-6.75-1.38,6.75H420l-1.4-6.78-.13,6.78Z" style="fill:#263238"></path><path d="M425.29,210.72V201h4.08v1.25h-2.3v2.8h1.81v1.23h-1.81v3.22h2.33v1.22Z" style="fill:#263238"></path><path d="M430.43,210.72V201h2.33a5,5,0,0,1,1.66.24,1.88,1.88,0,0,1,1,.79,2.85,2.85,0,0,1,.36,1.54,4.93,4.93,0,0,1-.11,1.06,2,2,0,0,1-.37.79,1.65,1.65,0,0,1-.71.51l1.35,4.79H434.2L433,206.27h-.81v4.45Zm1.78-5.57h.55a1.88,1.88,0,0,0,.82-.15.9.9,0,0,0,.44-.48,2.25,2.25,0,0,0,.13-.84,1.84,1.84,0,0,0-.27-1.1,1.22,1.22,0,0,0-1-.37h-.64Z" style="fill:#263238"></path><path d="M439.59,210.85a2.86,2.86,0,0,1-1.47-.34,2.17,2.17,0,0,1-.89-1,4.23,4.23,0,0,1-.33-1.62l1.52-.3a4.72,4.72,0,0,0,.14,1,1.43,1.43,0,0,0,.35.66.81.81,0,0,0,.62.24.71.71,0,0,0,.61-.26,1.12,1.12,0,0,0,.18-.66,1.77,1.77,0,0,0-.29-1,4.79,4.79,0,0,0-.77-.82L438,205.63a3.34,3.34,0,0,1-.82-1,2.64,2.64,0,0,1-.31-1.35,2.28,2.28,0,0,1,.67-1.77,2.58,2.58,0,0,1,1.84-.63,2.76,2.76,0,0,1,1.14.21,1.82,1.82,0,0,1,.72.59,2.63,2.63,0,0,1,.41.84,5.35,5.35,0,0,1,.16,1l-1.51.27a5.93,5.93,0,0,0-.1-.82,1,1,0,0,0-.28-.56.75.75,0,0,0-.58-.21.72.72,0,0,0-.6.26,1,1,0,0,0-.21.64,1.43,1.43,0,0,0,.2.81,3.15,3.15,0,0,0,.59.66l1.21,1.07a5.08,5.08,0,0,1,1,1.18,3.05,3.05,0,0,1,.42,1.64,2.49,2.49,0,0,1-.3,1.23,2.26,2.26,0,0,1-.86.85A2.59,2.59,0,0,1,439.59,210.85Z" style="fill:#263238"></path><rect x="399.89" y="141.38" width="23.63" height="23.03" style="fill:#263238;stroke:#263238;stroke-linecap:round;stroke-linejoin:round"></rect><path d="M437,190.54a25.25,25.25,0,0,0-50.49,0Z" style="fill:#fff;stroke:#263238;stroke-linecap:round;stroke-linejoin:round"></path><polygon points="419.9 166.74 412.33 169.18 403.99 166.74 403.99 156.57 419.9 156.57 419.9 166.74" style="fill:#fff;stroke:#263238;stroke-linecap:round;stroke-linejoin:round"></polygon><path d="M424,143.8c0,.4,0,.77,0,1.15-.3,12.61-5.64,17.73-12.24,17.73s-12-4.18-12.22-17.77c0-.35,0-.73,0-1.11,0-7.77,5.49-14.06,12.23-14.06S424,136,424,143.8Z" style="fill:#fff;stroke:#263238;stroke-linecap:round;stroke-linejoin:round"></path><path d="M424,143.8c0,.4,0,.77,0,1.15a15.78,15.78,0,0,1-11.34-13.29s-4.48,11.2-13.12,13.25c0-.35,0-.73,0-1.11,0-7.77,5.49-14.06,12.23-14.06S424,136,424,143.8Z" style="fill:#263238;stroke:#263238;stroke-linecap:round;stroke-linejoin:round"></path></g><g id="freepik--Distribution--inject-53"><path d="M294.09,120.09v-9.72h2.29a4.29,4.29,0,0,1,1.86.32,1.93,1.93,0,0,1,.95,1,4.34,4.34,0,0,1,.28,1.7v3.55a4.71,4.71,0,0,1-.28,1.76,1.92,1.92,0,0,1-.94,1,3.84,3.84,0,0,1-1.79.35Zm1.78-1.24h.54a1.37,1.37,0,0,0,.88-.22,1,1,0,0,0,.32-.63,7.11,7.11,0,0,0,.06-1v-3.72a4.07,4.07,0,0,0-.09-1,.83.83,0,0,0-.34-.53,1.7,1.7,0,0,0-.86-.16h-.51Z" style="fill:#263238"></path><path d="M300.83,120.09v-9.72h1.75v9.72Z" style="fill:#263238"></path><path d="M306.53,120.22a3,3,0,0,1-1.47-.34,2.2,2.2,0,0,1-.89-1,4.23,4.23,0,0,1-.33-1.62l1.52-.3a4.72,4.72,0,0,0,.14,1,1.47,1.47,0,0,0,.35.67.84.84,0,0,0,.61.23.71.71,0,0,0,.62-.26,1.11,1.11,0,0,0,.18-.65,1.81,1.81,0,0,0-.29-1,4.42,4.42,0,0,0-.77-.81L305,115a3.61,3.61,0,0,1-.82-1,2.7,2.7,0,0,1-.31-1.35,2.31,2.31,0,0,1,.67-1.78,2.63,2.63,0,0,1,1.84-.62,2.76,2.76,0,0,1,1.14.21,1.8,1.8,0,0,1,.72.58,2.47,2.47,0,0,1,.4.85,4.54,4.54,0,0,1,.17,1l-1.51.26a6,6,0,0,0-.1-.81,1.1,1.1,0,0,0-.28-.57.78.78,0,0,0-.58-.2.73.73,0,0,0-.61.26,1,1,0,0,0-.21.64,1.43,1.43,0,0,0,.21.81,2.87,2.87,0,0,0,.59.65l1.21,1.07a5.3,5.3,0,0,1,1,1.18,3.05,3.05,0,0,1,.42,1.64,2.53,2.53,0,0,1-.3,1.24,2.17,2.17,0,0,1-.86.84A2.49,2.49,0,0,1,306.53,120.22Z" style="fill:#263238"></path><path d="M311,120.09v-8.42h-1.55v-1.3h4.85v1.3h-1.53v8.42Z" style="fill:#263238"></path><path d="M315.17,120.09v-9.72h2.32a5.1,5.1,0,0,1,1.67.23,1.93,1.93,0,0,1,1,.8,2.91,2.91,0,0,1,.35,1.53,4.8,4.8,0,0,1-.11,1.06,2,2,0,0,1-.36.8,1.68,1.68,0,0,1-.72.51l1.36,4.79h-1.78l-1.17-4.46h-.82v4.46Zm1.77-5.57h.55a1.85,1.85,0,0,0,.82-.15.83.83,0,0,0,.44-.48,2.27,2.27,0,0,0,.13-.85,1.94,1.94,0,0,0-.26-1.1,1.25,1.25,0,0,0-1-.36h-.65Z" style="fill:#263238"></path><path d="M321.92,120.09v-9.72h1.75v9.72Z" style="fill:#263238"></path><path d="M325.17,120.09v-9.72h2.39a5.26,5.26,0,0,1,1.17.12,2.31,2.31,0,0,1,.9.4,1.78,1.78,0,0,1,.58.76,3,3,0,0,1,.21,1.21,2.77,2.77,0,0,1-.17,1,1.49,1.49,0,0,1-.47.67,1.84,1.84,0,0,1-.78.33,2,2,0,0,1,1,.4,1.87,1.87,0,0,1,.56.8,3.39,3.39,0,0,1,.19,1.18,3.8,3.8,0,0,1-.18,1.23,2.12,2.12,0,0,1-.52.89,2.07,2.07,0,0,1-.85.54,3.59,3.59,0,0,1-1.19.18Zm1.78-5.75h.6a1.64,1.64,0,0,0,.81-.16.82.82,0,0,0,.41-.48,2.64,2.64,0,0,0,.11-.81,1.59,1.59,0,0,0-.17-.8.89.89,0,0,0-.53-.39,3.5,3.5,0,0,0-.88-.1H327Zm0,4.5h.67a1.27,1.27,0,0,0,1.09-.39,2.05,2.05,0,0,0,.29-1.21,2.76,2.76,0,0,0-.14-.95,1,1,0,0,0-.45-.55,1.76,1.76,0,0,0-.85-.18H327Z" style="fill:#263238"></path><path d="M334.52,120.22a3,3,0,0,1-1.68-.4,2,2,0,0,1-.83-1.13,5.94,5.94,0,0,1-.23-1.75v-6.57h1.73v6.78a5.67,5.67,0,0,0,.06.85,1.25,1.25,0,0,0,.28.65,1,1,0,0,0,1.35,0,1.25,1.25,0,0,0,.27-.65,4.57,4.57,0,0,0,.07-.85v-6.78h1.72v6.57a5.94,5.94,0,0,1-.23,1.75,2,2,0,0,1-.82,1.13A3,3,0,0,1,334.52,120.22Z" style="fill:#263238"></path><path d="M339.62,120.09v-8.42h-1.55v-1.3h4.85v1.3H341.4v8.42Z" style="fill:#263238"></path><path d="M343.86,120.09v-9.72h1.75v9.72Z" style="fill:#263238"></path><path d="M349.75,120.22a3.05,3.05,0,0,1-1.65-.39,2.09,2.09,0,0,1-.87-1.1A4.85,4.85,0,0,1,347,117v-3.64a4.72,4.72,0,0,1,.27-1.69,2.1,2.1,0,0,1,.87-1.07,3.89,3.89,0,0,1,3.31,0,2.17,2.17,0,0,1,.88,1.07,4.72,4.72,0,0,1,.27,1.69V117a4.7,4.7,0,0,1-.27,1.68,2.22,2.22,0,0,1-.88,1.11A3,3,0,0,1,349.75,120.22Zm0-1.31a.82.82,0,0,0,.93-.72,3.33,3.33,0,0,0,.08-.73V113a3.26,3.26,0,0,0-.08-.73.85.85,0,0,0-.28-.51,1.19,1.19,0,0,0-1.29,0,.92.92,0,0,0-.29.51,4,4,0,0,0-.07.73v4.48a3.35,3.35,0,0,0,.07.73.82.82,0,0,0,.93.72Z" style="fill:#263238"></path><path d="M353.86,120.09v-9.72h1.24l2.36,5.54v-5.54h1.47v9.72h-1.18l-2.37-5.81v5.81Z" style="fill:#263238"></path><circle cx="313.28" cy="97.69" r="7.82" style="fill:#263238;stroke:#263238;stroke-linecap:round;stroke-linejoin:round"></circle><circle cx="357.67" cy="97.69" r="7.82" style="fill:#263238;stroke:#263238;stroke-linecap:round;stroke-linejoin:round"></circle><polygon points="308.48 97.49 283.59 97.49 283.59 82.37 292.37 72.72 308.48 72.72 308.48 97.49" style="fill:#fff;stroke:#263238;stroke-linecap:round;stroke-linejoin:round"></polygon><rect x="295.63" y="76.27" width="7.17" height="6.76" style="fill:#263238"></rect><polygon points="294 76.27 293.42 76.27 287.27 83.02 294 83.02 294 76.27" style="fill:#263238"></polygon><rect x="281.29" y="93.78" width="5.54" height="3.58" style="fill:#fff;stroke:#263238;stroke-linecap:round;stroke-linejoin:round"></rect><rect x="314.56" y="53.25" width="53.09" height="44.24" style="fill:#263238;stroke:#263238;stroke-linecap:round;stroke-linejoin:round"></rect><rect x="305.14" y="53.25" width="53.09" height="44.24" style="fill:#fff;stroke:#263238;stroke-linecap:round;stroke-linejoin:round"></rect><circle cx="299.21" cy="97.69" r="7.82" style="fill:#263238;stroke:#263238;stroke-linecap:round;stroke-linejoin:round"></circle><path d="M302.4,97.69a3.19,3.19,0,1,0-3.19,3.18A3.19,3.19,0,0,0,302.4,97.69Z" style="fill:#fff;stroke:#263238;stroke-linecap:round;stroke-linejoin:round"></path><circle cx="343.6" cy="97.69" r="7.82" style="fill:#263238;stroke:#263238;stroke-linecap:round;stroke-linejoin:round"></circle><path d="M346.79,97.69a3.19,3.19,0,1,0-3.19,3.18A3.19,3.19,0,0,0,346.79,97.69Z" style="fill:#fff;stroke:#263238;stroke-linecap:round;stroke-linejoin:round"></path><circle cx="329.86" cy="73.03" r="14.76" style="fill:#fff;stroke:#263238;stroke-linecap:round;stroke-linejoin:round"></circle><circle cx="329.86" cy="73.03" r="8.37" style="fill:#fff;stroke:#263238;stroke-linecap:round;stroke-linejoin:round"></circle></g><g id="freepik--Competitors--inject-53"><path d="M159,120.22a2.88,2.88,0,0,1-1.67-.42,2.2,2.2,0,0,1-.85-1.15,5.3,5.3,0,0,1-.24-1.67v-3.47a5.6,5.6,0,0,1,.24-1.73,2.12,2.12,0,0,1,.85-1.13,3.8,3.8,0,0,1,3.25-.05,1.87,1.87,0,0,1,.81,1,4.12,4.12,0,0,1,.24,1.47v.82h-1.7V113c0-.27,0-.52,0-.74a1,1,0,0,0-.23-.54.88.88,0,0,0-.64-.2.91.91,0,0,0-.67.21,1,1,0,0,0-.27.57,4.74,4.74,0,0,0-.06.8v4.22a4.16,4.16,0,0,0,.08.87.94.94,0,0,0,.31.52,1,1,0,0,0,.61.17.83.83,0,0,0,.63-.21,1.06,1.06,0,0,0,.23-.56,6,6,0,0,0,.05-.78v-.87h1.7v.78a4.56,4.56,0,0,1-.23,1.53,2,2,0,0,1-.79,1A2.92,2.92,0,0,1,159,120.22Z" style="fill:#263238"></path><path d="M165.52,120.22a3.05,3.05,0,0,1-1.65-.39,2.09,2.09,0,0,1-.87-1.1,4.85,4.85,0,0,1-.27-1.7v-3.64a4.72,4.72,0,0,1,.27-1.69,2.1,2.1,0,0,1,.87-1.07,3.89,3.89,0,0,1,3.31,0,2.17,2.17,0,0,1,.88,1.07,4.72,4.72,0,0,1,.27,1.69V117a4.7,4.7,0,0,1-.27,1.68,2.22,2.22,0,0,1-.88,1.11A3,3,0,0,1,165.52,120.22Zm0-1.31a.82.82,0,0,0,.93-.72,3.33,3.33,0,0,0,.08-.73V113a3.26,3.26,0,0,0-.08-.73.85.85,0,0,0-.28-.51,1.19,1.19,0,0,0-1.29,0,.92.92,0,0,0-.29.51,4,4,0,0,0-.07.73v4.48a3.35,3.35,0,0,0,.07.73.82.82,0,0,0,.93.72Z" style="fill:#263238"></path><path d="M169.61,120.09l.17-9.72h1.83L173,117.1l1.44-6.73h1.78l.18,9.72h-1.32l-.14-6.76-1.38,6.76h-1.07l-1.41-6.78-.13,6.78Z" style="fill:#263238"></path><path d="M177.76,120.09v-9.72h2.85a2.75,2.75,0,0,1,1.43.32,2,2,0,0,1,.8.94,3.91,3.91,0,0,1,.26,1.5,3.1,3.1,0,0,1-.33,1.53,1.88,1.88,0,0,1-.9.84,3.27,3.27,0,0,1-1.38.27h-1v4.32Zm1.77-5.57h.68a1.7,1.7,0,0,0,.75-.14.74.74,0,0,0,.37-.44,2.68,2.68,0,0,0,.1-.83,3.89,3.89,0,0,0-.08-.85.73.73,0,0,0-.33-.49,1.7,1.7,0,0,0-.81-.16h-.68Z" style="fill:#263238"></path><path d="M184,120.09v-9.72h4.08v1.24h-2.3v2.8h1.81v1.24h-1.81v3.21h2.33v1.23Z" style="fill:#263238"></path><path d="M190.14,120.09v-8.42h-1.55v-1.3h4.85v1.3h-1.52v8.42Z" style="fill:#263238"></path><path d="M194.38,120.09v-9.72h1.75v9.72Z" style="fill:#263238"></path><path d="M198.6,120.09v-8.42h-1.55v-1.3h4.85v1.3h-1.52v8.42Z" style="fill:#263238"></path><path d="M205.38,120.22a3,3,0,0,1-1.64-.39,2.11,2.11,0,0,1-.88-1.1,5.11,5.11,0,0,1-.26-1.7v-3.64a5,5,0,0,1,.26-1.69,2.12,2.12,0,0,1,.88-1.07,3.86,3.86,0,0,1,3.3,0,2.12,2.12,0,0,1,.88,1.07,4.72,4.72,0,0,1,.27,1.69V117a4.7,4.7,0,0,1-.27,1.68,2.17,2.17,0,0,1-.88,1.11A3,3,0,0,1,205.38,120.22Zm0-1.31a1,1,0,0,0,.66-.19,1,1,0,0,0,.28-.53,3.35,3.35,0,0,0,.07-.73V113a3.29,3.29,0,0,0-.07-.73.91.91,0,0,0-.28-.51,1,1,0,0,0-.66-.19,1,1,0,0,0-.63.19.87.87,0,0,0-.29.51,3.29,3.29,0,0,0-.07.73v4.48a4.15,4.15,0,0,0,.06.73,1,1,0,0,0,.28.53A1,1,0,0,0,205.38,118.91Z" style="fill:#263238"></path><path d="M209.5,120.09v-9.72h2.33a5,5,0,0,1,1.66.23,1.93,1.93,0,0,1,1,.8,2.91,2.91,0,0,1,.35,1.53,4.83,4.83,0,0,1-.1,1.06,2.19,2.19,0,0,1-.37.8,1.65,1.65,0,0,1-.71.51l1.35,4.79h-1.77l-1.18-4.46h-.82v4.46Zm1.77-5.57h.56a1.91,1.91,0,0,0,.82-.15.9.9,0,0,0,.44-.48,2.49,2.49,0,0,0,.13-.85,1.86,1.86,0,0,0-.27-1.1,1.22,1.22,0,0,0-1-.36h-.65Z" style="fill:#263238"></path><path d="M218.65,120.22a3,3,0,0,1-1.46-.34,2.2,2.2,0,0,1-.89-1,4.23,4.23,0,0,1-.33-1.62l1.52-.3a4.16,4.16,0,0,0,.14,1,1.38,1.38,0,0,0,.35.67.84.84,0,0,0,.61.23.71.71,0,0,0,.62-.26,1.11,1.11,0,0,0,.18-.65,1.81,1.81,0,0,0-.29-1,4.42,4.42,0,0,0-.77-.81L217.1,115a4,4,0,0,1-.82-1,2.81,2.81,0,0,1-.3-1.35,2.31,2.31,0,0,1,.67-1.78,2.63,2.63,0,0,1,1.84-.62,2.68,2.68,0,0,1,1.13.21,1.77,1.77,0,0,1,.73.58,2.66,2.66,0,0,1,.4.85,4.54,4.54,0,0,1,.17,1l-1.51.26a6,6,0,0,0-.1-.81,1.27,1.27,0,0,0-.28-.57.78.78,0,0,0-.58-.2.73.73,0,0,0-.61.26,1,1,0,0,0-.21.64,1.43,1.43,0,0,0,.21.81,2.87,2.87,0,0,0,.59.65l1.21,1.07a5,5,0,0,1,1,1.18,3,3,0,0,1,.43,1.64,2.43,2.43,0,0,1-.31,1.24,2.15,2.15,0,0,1-.85.84A2.5,2.5,0,0,1,218.65,120.22Z" style="fill:#263238"></path><path d="M209,92.81a19.3,19.3,0,0,0-19.28-19.23,19,19,0,0,0-9.08,2.28,19.34,19.34,0,0,0-10.2,17Z" style="fill:#fff;stroke:#263238;stroke-linecap:round;stroke-linejoin:round"></path><path d="M189.67,73.58a19.1,19.1,0,0,0-5.94,1l.12.22,6.27,15.85,5.77-16A19.15,19.15,0,0,0,189.67,73.58Z" style="fill:#fff;stroke:#263238;stroke-linecap:round;stroke-linejoin:round"></path><polygon points="189.96 75.88 187.47 77.94 189.08 79.69 187.76 81.89 190.12 90.6 192.16 82.33 191.13 79.84 192.6 77.94 189.96 75.88" style="fill:#263238"></polygon><polygon points="195.89 74.63 190.11 76.49 183.74 74.63 183.74 66.87 195.89 66.87 195.89 74.63" style="fill:#fff;stroke:#263238;stroke-linecap:round;stroke-linejoin:round"></polygon><path d="M199,57.12c0,.3,0,.58,0,.87-.23,9.63-4.3,13.54-9.33,13.54s-9.14-3.2-9.34-13.57c0-.27,0-.56,0-.84,0-5.94,4.19-10.75,9.35-10.75S199,51.18,199,57.12Z" style="fill:#fff;stroke:#263238;stroke-linecap:round;stroke-linejoin:round"></path><path d="M199,57.12c0,.3,0,.58,0,.87l-.07.3h-2.17V54.58l-3.35-3.7h-7l-2.06-2.07.63,2.78-2.78,3.09v3.39H180.4l-.07-.11c0-.27,0-.56,0-.84,0-5.94,4.19-10.75,9.35-10.75S199,51.18,199,57.12Z" style="fill:#263238"></path><path d="M184.87,104.09a19.28,19.28,0,0,0-38.55,0Z" style="fill:#fff;stroke:#263238;stroke-linecap:round;stroke-linejoin:round"></path><path d="M165.6,84.87a19.2,19.2,0,0,0-5.95.94l.12.22,6.28,15.85,5.76-16A19,19,0,0,0,165.6,84.87Z" style="fill:#fff;stroke:#263238;stroke-linecap:round;stroke-linejoin:round"></path><polygon points="165.89 87.17 163.4 89.22 165.01 90.98 163.69 93.18 166.05 101.88 168.09 93.62 167.06 91.13 168.53 89.22 165.89 87.17" style="fill:#263238"></polygon><polygon points="171.81 85.91 166.03 87.78 159.67 85.91 159.67 78.15 171.81 78.15 171.81 85.91" style="fill:#fff;stroke:#263238;stroke-linecap:round;stroke-linejoin:round"></polygon><path d="M174.94,68.4c0,.3,0,.59,0,.87-.23,9.64-4.31,13.54-9.34,13.54s-9.13-3.19-9.33-13.57c0-.27,0-.55,0-.84,0-5.94,4.19-10.74,9.35-10.74S174.94,62.46,174.94,68.4Z" style="fill:#fff;stroke:#263238;stroke-linecap:round;stroke-linejoin:round"></path><path d="M174.94,68.4c0,.3,0,.59,0,.87l-.07.3h-2.17v-3.7l-3.35-3.71h-7l-2.07-2.07.63,2.78L158.08,66v3.39h-1.75l-.07-.12c0-.27,0-.55,0-.84,0-5.94,4.19-10.74,9.35-10.74S174.94,62.46,174.94,68.4Z" style="fill:#263238"></path><path d="M233.24,104.09a19.28,19.28,0,0,0-38.55,0Z" style="fill:#fff;stroke:#263238;stroke-linecap:round;stroke-linejoin:round"></path><path d="M214,84.87a19.15,19.15,0,0,0-5.95.94l.12.22,6.28,15.85,5.76-16A19.08,19.08,0,0,0,214,84.87Z" style="fill:#fff;stroke:#263238;stroke-linecap:round;stroke-linejoin:round"></path><polygon points="214.25 87.17 211.76 89.22 213.38 90.98 212.06 93.18 214.42 101.88 216.45 93.62 215.43 91.13 216.89 89.22 214.25 87.17" style="fill:#263238"></polygon><polygon points="220.18 85.91 214.4 87.78 208.03 85.91 208.03 78.15 220.18 78.15 220.18 85.91" style="fill:#fff;stroke:#263238;stroke-linecap:round;stroke-linejoin:round"></polygon><path d="M223.31,68.4c0,.3,0,.59,0,.87-.23,9.64-4.31,13.54-9.34,13.54s-9.13-3.19-9.33-13.57c0-.27,0-.55,0-.84,0-5.94,4.19-10.74,9.35-10.74S223.31,62.46,223.31,68.4Z" style="fill:#fff;stroke:#263238;stroke-linecap:round;stroke-linejoin:round"></path><path d="M223.31,68.4c0,.3,0,.59,0,.87l-.08.3h-2.16v-3.7l-3.35-3.71h-7l-2.07-2.07.63,2.78L206.45,66v3.39H204.7l-.07-.12c0-.27,0-.55,0-.84,0-5.94,4.19-10.74,9.35-10.74S223.31,62.46,223.31,68.4Z" style="fill:#263238"></path></g><g id="freepik--Products--inject-53"><path d="M50.73,210.72V201h2.85a2.75,2.75,0,0,1,1.43.33,1.9,1.9,0,0,1,.8.94,3.9,3.9,0,0,1,.26,1.49,3.1,3.1,0,0,1-.33,1.53,1.9,1.9,0,0,1-.9.85,3.43,3.43,0,0,1-1.38.26h-1v4.32Zm1.77-5.57h.68a1.71,1.71,0,0,0,.75-.13.76.76,0,0,0,.37-.45,2.61,2.61,0,0,0,.1-.82,4,4,0,0,0-.08-.86.71.71,0,0,0-.33-.48,1.59,1.59,0,0,0-.81-.16H52.5Z" style="fill:#263238"></path><path d="M57,210.72V201h2.33a5,5,0,0,1,1.66.24,1.9,1.9,0,0,1,1,.79,3,3,0,0,1,.35,1.54,4.93,4.93,0,0,1-.11,1.06,2,2,0,0,1-.36.79,1.68,1.68,0,0,1-.72.51l1.36,4.79H60.77l-1.17-4.45h-.82v4.45Zm1.78-5.57h.55a1.85,1.85,0,0,0,.82-.15.87.87,0,0,0,.44-.48,2.25,2.25,0,0,0,.13-.84,1.84,1.84,0,0,0-.27-1.1,1.21,1.21,0,0,0-1-.37h-.65Z" style="fill:#263238"></path><path d="M66.33,210.85a3.06,3.06,0,0,1-1.65-.38,2.13,2.13,0,0,1-.87-1.1,4.87,4.87,0,0,1-.27-1.71V204a4.72,4.72,0,0,1,.27-1.69,2,2,0,0,1,.87-1.07,3.79,3.79,0,0,1,3.31,0,2.08,2.08,0,0,1,.88,1.07,4.72,4.72,0,0,1,.27,1.69v3.64a4.79,4.79,0,0,1-.27,1.69,2.2,2.2,0,0,1-.88,1.1A3,3,0,0,1,66.33,210.85Zm0-1.3a.94.94,0,0,0,.65-.2.88.88,0,0,0,.28-.52,3.43,3.43,0,0,0,.08-.74v-4.47a3.2,3.2,0,0,0-.08-.73.85.85,0,0,0-.28-.51,1.19,1.19,0,0,0-1.29,0,.92.92,0,0,0-.29.51,3.93,3.93,0,0,0-.07.73v4.47a3.45,3.45,0,0,0,.07.74.88.88,0,0,0,.28.52A.94.94,0,0,0,66.33,209.55Z" style="fill:#263238"></path><path d="M70.44,210.72V201h2.3a4.22,4.22,0,0,1,1.85.33,1.88,1.88,0,0,1,1,1,4.43,4.43,0,0,1,.28,1.71v3.55a4.74,4.74,0,0,1-.28,1.76,2,2,0,0,1-.94,1,3.85,3.85,0,0,1-1.79.34Zm1.78-1.23h.54a1.43,1.43,0,0,0,.88-.22,1,1,0,0,0,.32-.63,7.21,7.21,0,0,0,.06-1v-3.72a4.73,4.73,0,0,0-.08-.95.85.85,0,0,0-.35-.53,1.67,1.67,0,0,0-.85-.17h-.52Z" style="fill:#263238"></path><path d="M79.79,210.85a3.07,3.07,0,0,1-1.68-.39,2.08,2.08,0,0,1-.83-1.13,6,6,0,0,1-.22-1.75V201h1.72v6.78a5.81,5.81,0,0,0,.06.86,1.22,1.22,0,0,0,.29.65.85.85,0,0,0,.66.24.86.86,0,0,0,.68-.24,1.38,1.38,0,0,0,.28-.65,5.81,5.81,0,0,0,.06-.86V201h1.72v6.58a6,6,0,0,1-.23,1.75,2.07,2.07,0,0,1-.82,1.13A3.08,3.08,0,0,1,79.79,210.85Z" style="fill:#263238"></path><path d="M86.54,210.85a2.92,2.92,0,0,1-1.68-.42,2.2,2.2,0,0,1-.84-1.14,5.36,5.36,0,0,1-.24-1.68v-3.46a5.56,5.56,0,0,1,.24-1.73,2.06,2.06,0,0,1,.84-1.13,3.09,3.09,0,0,1,1.68-.4,3,3,0,0,1,1.57.35,1.85,1.85,0,0,1,.81,1,4.21,4.21,0,0,1,.24,1.48v.82h-1.7v-.84a5.76,5.76,0,0,0,0-.75,1,1,0,0,0-.23-.53.86.86,0,0,0-.64-.2.91.91,0,0,0-.67.21,1,1,0,0,0-.27.56,4.92,4.92,0,0,0-.06.8V208a3.52,3.52,0,0,0,.09.87.85.85,0,0,0,.3.51.94.94,0,0,0,.61.18.83.83,0,0,0,.63-.21,1.06,1.06,0,0,0,.23-.56,6,6,0,0,0,0-.78v-.88h1.7v.78a4.75,4.75,0,0,1-.22,1.53,2.06,2.06,0,0,1-.8,1A2.92,2.92,0,0,1,86.54,210.85Z" style="fill:#263238"></path><path d="M91.37,210.72v-8.41H89.82V201h4.85v1.31H93.15v8.41Z" style="fill:#263238"></path><path d="M98,210.85a2.88,2.88,0,0,1-1.47-.34,2.15,2.15,0,0,1-.88-1,4.22,4.22,0,0,1-.34-1.62l1.52-.3a5.47,5.47,0,0,0,.14,1,1.43,1.43,0,0,0,.35.66.83.83,0,0,0,.62.24.69.69,0,0,0,.61-.26,1.12,1.12,0,0,0,.18-.66,1.77,1.77,0,0,0-.29-1,4.79,4.79,0,0,0-.77-.82l-1.22-1.08a3.5,3.5,0,0,1-.82-1,2.64,2.64,0,0,1-.31-1.35,2.32,2.32,0,0,1,.67-1.77,2.58,2.58,0,0,1,1.84-.63,2.7,2.7,0,0,1,1.14.21,1.85,1.85,0,0,1,.73.59,2.61,2.61,0,0,1,.4.84,5.35,5.35,0,0,1,.17,1l-1.52.27a4.71,4.71,0,0,0-.1-.82,1.09,1.09,0,0,0-.27-.56.79.79,0,0,0-.59-.21.74.74,0,0,0-.6.26,1,1,0,0,0-.21.64,1.52,1.52,0,0,0,.2.81,3.15,3.15,0,0,0,.59.66L99,205.65a5.08,5.08,0,0,1,1,1.18,3.05,3.05,0,0,1,.42,1.64,2.49,2.49,0,0,1-.3,1.23,2.31,2.31,0,0,1-.85.85A2.63,2.63,0,0,1,98,210.85Z" style="fill:#263238"></path><path d="M106.36,210.85a2.3,2.3,0,0,1-1.17-.28,2,2,0,0,1-.77-.79,2.52,2.52,0,0,1-.27-1.19,3.18,3.18,0,0,1,.4-1.61,5.77,5.77,0,0,1,1-1.26l-.47-.87a6,6,0,0,1-.4-.9,2.91,2.91,0,0,1-.15-.92,2.29,2.29,0,0,1,.25-1.1,2,2,0,0,1,.72-.77,2.23,2.23,0,0,1,1.13-.28,2.31,2.31,0,0,1,1.07.24,1.94,1.94,0,0,1,.74.68,1.91,1.91,0,0,1,.27,1,2.58,2.58,0,0,1-.28,1.2,4.9,4.9,0,0,1-.68,1c-.26.3-.52.58-.76.83l1.29,2.22a2.44,2.44,0,0,0,.21-.55,10.89,10.89,0,0,0,.21-1.43H110a5.06,5.06,0,0,1-.12,1.12,4.87,4.87,0,0,1-.3,1,8,8,0,0,1-.42.83,1.16,1.16,0,0,0,.38.29,1.07,1.07,0,0,0,.49.14v1.38l-.13,0h-.13a1.48,1.48,0,0,1-.6-.15,2.49,2.49,0,0,1-.5-.35,3.92,3.92,0,0,1-.41-.4,2.32,2.32,0,0,1-1.91.88Zm0-1.2a1.08,1.08,0,0,0,.62-.18,2.06,2.06,0,0,0,.46-.42l-1.34-2.24a3.41,3.41,0,0,0-.42.83,3.14,3.14,0,0,0-.14.91,2,2,0,0,0,.08.55.89.89,0,0,0,.27.4A.7.7,0,0,0,106.4,209.65Zm.09-4.65a4.16,4.16,0,0,0,.4-.64,4.37,4.37,0,0,0,.31-.78,2.74,2.74,0,0,0,.12-.78.64.64,0,0,0-.67-.69.57.57,0,0,0-.51.27,1.21,1.21,0,0,0-.16.65,3.35,3.35,0,0,0,.16,1C106.26,204.4,106.37,204.71,106.49,205Z" style="fill:#263238"></path><path d="M116.72,210.85a2.86,2.86,0,0,1-1.47-.34,2.17,2.17,0,0,1-.89-1,4.23,4.23,0,0,1-.33-1.62l1.52-.3a4.72,4.72,0,0,0,.14,1,1.43,1.43,0,0,0,.35.66.81.81,0,0,0,.62.24.71.71,0,0,0,.61-.26,1.12,1.12,0,0,0,.18-.66,1.77,1.77,0,0,0-.29-1,4.79,4.79,0,0,0-.77-.82l-1.22-1.08a3.34,3.34,0,0,1-.82-1,2.64,2.64,0,0,1-.31-1.35,2.28,2.28,0,0,1,.67-1.77,2.58,2.58,0,0,1,1.84-.63,2.76,2.76,0,0,1,1.14.21,1.82,1.82,0,0,1,.72.59,2.63,2.63,0,0,1,.41.84,5.35,5.35,0,0,1,.16,1l-1.51.27a4.71,4.71,0,0,0-.1-.82,1,1,0,0,0-.28-.56.75.75,0,0,0-.58-.21.74.74,0,0,0-.6.26,1,1,0,0,0-.21.64,1.43,1.43,0,0,0,.2.81,3.15,3.15,0,0,0,.59.66l1.21,1.07a5.08,5.08,0,0,1,1,1.18,3.05,3.05,0,0,1,.42,1.64,2.49,2.49,0,0,1-.3,1.23,2.26,2.26,0,0,1-.86.85A2.59,2.59,0,0,1,116.72,210.85Z" style="fill:#263238"></path><path d="M120.1,210.72V201h4.08v1.25h-2.3v2.8h1.81v1.23h-1.81v3.22h2.32v1.22Z" style="fill:#263238"></path><path d="M125.24,210.72V201h2.32a5.08,5.08,0,0,1,1.67.24,1.91,1.91,0,0,1,1,.79,3,3,0,0,1,.35,1.54,4.37,4.37,0,0,1-.11,1.06,2,2,0,0,1-.36.79,1.62,1.62,0,0,1-.72.51l1.36,4.79H129l-1.17-4.45H127v4.45Zm1.77-5.57h.55a1.92,1.92,0,0,0,.83-.15.85.85,0,0,0,.43-.48,2.23,2.23,0,0,0,.14-.84,1.84,1.84,0,0,0-.27-1.1,1.23,1.23,0,0,0-1-.37H127Z" style="fill:#263238"></path><path d="M133.41,210.72l-2-9.72H133l1.29,6.88,1.2-6.88h1.61l-2,9.72Z" style="fill:#263238"></path><path d="M138.16,210.72V201h1.75v9.72Z" style="fill:#263238"></path><path d="M144,210.85a2.92,2.92,0,0,1-1.68-.42,2.2,2.2,0,0,1-.84-1.14,5.36,5.36,0,0,1-.24-1.68v-3.46a5.56,5.56,0,0,1,.24-1.73,2.06,2.06,0,0,1,.84-1.13,3.09,3.09,0,0,1,1.68-.4,3,3,0,0,1,1.57.35,1.85,1.85,0,0,1,.81,1,4,4,0,0,1,.25,1.48v.82H145v-.84a5.76,5.76,0,0,0,0-.75.89.89,0,0,0-.23-.53.86.86,0,0,0-.64-.2.91.91,0,0,0-.67.21,1,1,0,0,0-.27.56,4.92,4.92,0,0,0-.06.8V208a3.52,3.52,0,0,0,.09.87.9.9,0,0,0,.3.51.94.94,0,0,0,.61.18.83.83,0,0,0,.63-.21,1.06,1.06,0,0,0,.23-.56,4.65,4.65,0,0,0,0-.78v-.88h1.71v.78a4.73,4.73,0,0,1-.23,1.53,2.06,2.06,0,0,1-.8,1A2.89,2.89,0,0,1,144,210.85Z" style="fill:#263238"></path><path d="M147.89,210.72V201H152v1.25h-2.3v2.8h1.81v1.23h-1.81v3.22H152v1.22Z" style="fill:#263238"></path><path d="M155.48,210.85a2.86,2.86,0,0,1-1.47-.34,2.17,2.17,0,0,1-.89-1,4.23,4.23,0,0,1-.33-1.62l1.52-.3a4.72,4.72,0,0,0,.14,1,1.34,1.34,0,0,0,.35.66.81.81,0,0,0,.61.24.71.71,0,0,0,.62-.26,1.12,1.12,0,0,0,.18-.66,1.77,1.77,0,0,0-.29-1,4.79,4.79,0,0,0-.77-.82l-1.22-1.08a3.53,3.53,0,0,1-.83-1,2.75,2.75,0,0,1-.3-1.35,2.28,2.28,0,0,1,.67-1.77,2.58,2.58,0,0,1,1.84-.63,2.76,2.76,0,0,1,1.14.21,1.82,1.82,0,0,1,.72.59,2.42,2.42,0,0,1,.4.84,4.65,4.65,0,0,1,.17,1l-1.51.27a4.71,4.71,0,0,0-.1-.82,1.1,1.1,0,0,0-.28-.56.75.75,0,0,0-.58-.21.76.76,0,0,0-.61.26,1,1,0,0,0-.21.64,1.43,1.43,0,0,0,.21.81,2.89,2.89,0,0,0,.59.66l1.21,1.07a4.82,4.82,0,0,1,1,1.18,3,3,0,0,1,.43,1.64,2.39,2.39,0,0,1-.31,1.23,2.17,2.17,0,0,1-.85.85A2.59,2.59,0,0,1,155.48,210.85Z" style="fill:#263238"></path><polygon points="67.84 162.34 84.81 162.34 93.37 148.26 76.4 148.26 67.84 162.34" style="fill:#fff;stroke:#263238;stroke-linecap:round;stroke-linejoin:round"></polygon><rect x="76.43" y="148.26" width="54.4" height="43.64" style="fill:#fff;stroke:#263238;stroke-linecap:round;stroke-linejoin:round"></rect><rect x="114.04" y="148.26" width="16.79" height="43.64" style="fill:#263238;stroke:#263238;stroke-linecap:round;stroke-linejoin:round"></rect><polygon points="139.58 162.34 122.6 162.34 114.04 148.26 131.02 148.26 139.58 162.34" style="fill:#fff;stroke:#263238;stroke-linecap:round;stroke-linejoin:round"></polygon><polygon points="109.46 162.34 72.82 162.34 76.63 148.26 113.26 148.26 109.46 162.34" style="fill:#fff;stroke:#263238;stroke-linecap:round;stroke-linejoin:round"></polygon><rect x="101.7" y="181.75" width="8.52" height="4.41" style="fill:#fff;stroke:#263238;stroke-linecap:round;stroke-linejoin:round"></rect></g><g id="freepik--Technologies--inject-53"><path d="M70,325.64v-8.41H68.46v-1.31h4.85v1.31H71.78v8.41Z" style="fill:#263238"></path><path d="M74.2,325.64v-9.72h4.08v1.25H76V320h1.81v1.24H76v3.21H78.3v1.22Z" style="fill:#263238"></path><path d="M82,325.78a2.94,2.94,0,0,1-1.68-.42,2.19,2.19,0,0,1-.84-1.15,5.3,5.3,0,0,1-.24-1.67v-3.47a5.6,5.6,0,0,1,.24-1.73,2.1,2.1,0,0,1,.84-1.13,3.12,3.12,0,0,1,1.68-.39,3.06,3.06,0,0,1,1.58.34,1.87,1.87,0,0,1,.81,1,4.12,4.12,0,0,1,.24,1.47v.82H82.87v-.84a5.86,5.86,0,0,0,0-.75.89.89,0,0,0-.23-.53.86.86,0,0,0-.64-.2.93.93,0,0,0-.67.21,1,1,0,0,0-.27.57,4.7,4.7,0,0,0-.06.79v4.23a3.52,3.52,0,0,0,.09.87.86.86,0,0,0,.3.51.94.94,0,0,0,.61.18.8.8,0,0,0,.63-.21,1.06,1.06,0,0,0,.23-.56,4.65,4.65,0,0,0,.05-.78V322h1.71v.79a4.71,4.71,0,0,1-.23,1.52,2,2,0,0,1-.8,1A2.89,2.89,0,0,1,82,325.78Z" style="fill:#263238"></path><path d="M85.84,325.64v-9.72H87.6V320h2v-4.07h1.78v9.72H89.58v-4.39h-2v4.39Z" style="fill:#263238"></path><path d="M92.84,325.64v-9.72h1.24l2.36,5.55v-5.55h1.47v9.72H96.73l-2.37-5.8v5.8Z" style="fill:#263238"></path><path d="M102,325.78a3,3,0,0,1-1.64-.39,2.11,2.11,0,0,1-.88-1.1,5.13,5.13,0,0,1-.26-1.71V319a5,5,0,0,1,.26-1.69,2.07,2.07,0,0,1,.88-1.07,3.14,3.14,0,0,1,1.64-.37,3.18,3.18,0,0,1,1.67.37,2.11,2.11,0,0,1,.87,1.07,4.72,4.72,0,0,1,.27,1.69v3.65a4.7,4.7,0,0,1-.27,1.68,2.2,2.2,0,0,1-.87,1.11A3.08,3.08,0,0,1,102,325.78Zm0-1.31a1,1,0,0,0,.66-.19,1,1,0,0,0,.28-.53A3.41,3.41,0,0,0,103,323v-4.48a3.23,3.23,0,0,0-.07-.73.91.91,0,0,0-.28-.51,1,1,0,0,0-.66-.19.9.9,0,0,0-.63.19.87.87,0,0,0-.29.51,3.23,3.23,0,0,0-.07.73V323a4.23,4.23,0,0,0,.06.73,1,1,0,0,0,.29.53A.92.92,0,0,0,102,324.47Z" style="fill:#263238"></path><path d="M106.14,325.64v-9.72h1.78v8.5h2.35v1.22Z" style="fill:#263238"></path><path d="M113.71,325.78a3,3,0,0,1-1.64-.39,2.11,2.11,0,0,1-.88-1.1,5.13,5.13,0,0,1-.26-1.71V319a5,5,0,0,1,.26-1.69,2.07,2.07,0,0,1,.88-1.07,3.86,3.86,0,0,1,3.3,0,2.07,2.07,0,0,1,.88,1.07,4.72,4.72,0,0,1,.27,1.69v3.65a4.7,4.7,0,0,1-.27,1.68,2.17,2.17,0,0,1-.88,1.11A3,3,0,0,1,113.71,325.78Zm0-1.31a1,1,0,0,0,.66-.19,1,1,0,0,0,.28-.53,3.41,3.41,0,0,0,.07-.73v-4.48a3.23,3.23,0,0,0-.07-.73.91.91,0,0,0-.28-.51,1,1,0,0,0-.66-.19.9.9,0,0,0-.63.19.87.87,0,0,0-.29.51,3.23,3.23,0,0,0-.07.73V323a4.23,4.23,0,0,0,.06.73,1,1,0,0,0,.28.53A1,1,0,0,0,113.71,324.47Z" style="fill:#263238"></path><path d="M120.26,325.78a2.56,2.56,0,0,1-1.52-.41,2.19,2.19,0,0,1-.81-1.16,5.81,5.81,0,0,1-.25-1.77v-3.26a5.94,5.94,0,0,1,.24-1.8,2.12,2.12,0,0,1,.85-1.16,3,3,0,0,1,1.67-.4,3.24,3.24,0,0,1,1.59.33,1.94,1.94,0,0,1,.84,1,3.89,3.89,0,0,1,.26,1.53v.5h-1.69v-.55a3.72,3.72,0,0,0-.07-.8.83.83,0,0,0-.26-.51.94.94,0,0,0-.64-.18.9.9,0,0,0-.68.23,1,1,0,0,0-.26.6,5.17,5.17,0,0,0-.06.82v4.07a3.75,3.75,0,0,0,.09.87,1,1,0,0,0,.31.57,1,1,0,0,0,.65.2.92.92,0,0,0,.66-.22,1.15,1.15,0,0,0,.31-.6,4,4,0,0,0,.09-.91v-.91h-1v-1.12h2.64v4.93H122l-.13-1a1.85,1.85,0,0,1-.58.79A1.74,1.74,0,0,1,120.26,325.78Z" style="fill:#263238"></path><path d="M124.58,325.64v-9.72h1.76v9.72Z" style="fill:#263238"></path><path d="M127.84,325.64v-9.72h4.08v1.25h-2.31V320h1.81v1.24h-1.81v3.21h2.33v1.22Z" style="fill:#263238"></path><path d="M135.42,325.78a2.88,2.88,0,0,1-1.47-.35,2.11,2.11,0,0,1-.88-1,4.22,4.22,0,0,1-.34-1.62l1.52-.3a5.47,5.47,0,0,0,.14,1,1.47,1.47,0,0,0,.35.66.83.83,0,0,0,.62.24.69.69,0,0,0,.61-.26,1.11,1.11,0,0,0,.18-.65,1.79,1.79,0,0,0-.29-1.05,4.42,4.42,0,0,0-.77-.81l-1.22-1.08a3.8,3.8,0,0,1-.82-1,2.7,2.7,0,0,1-.31-1.35,2.34,2.34,0,0,1,.67-1.78,2.58,2.58,0,0,1,1.84-.62,2.7,2.7,0,0,1,1.14.21,1.83,1.83,0,0,1,.73.58,2.66,2.66,0,0,1,.4.85,5.09,5.09,0,0,1,.17,1l-1.52.26a4.84,4.84,0,0,0-.1-.82,1.18,1.18,0,0,0-.27-.56.83.83,0,0,0-.59-.2.73.73,0,0,0-.6.25,1,1,0,0,0-.21.65,1.54,1.54,0,0,0,.2.81,3.13,3.13,0,0,0,.59.65l1.21,1.07a5.08,5.08,0,0,1,1,1.18,3.05,3.05,0,0,1,.42,1.64,2.49,2.49,0,0,1-.3,1.23,2.24,2.24,0,0,1-.85.85A2.63,2.63,0,0,1,135.42,325.78Z" style="fill:#263238"></path><rect x="95.66" y="246.43" width="19.17" height="53.88" style="fill:#fff;stroke:#263238;stroke-linecap:round;stroke-linejoin:round"></rect><rect x="93.63" y="246.43" width="19.17" height="53.88" style="fill:#fff;stroke:#263238;stroke-linecap:round;stroke-linejoin:round"></rect><rect x="93.63" y="278.8" width="19.17" height="12.39" style="fill:#263238;stroke:#263238;stroke-linecap:round;stroke-linejoin:round"></rect><rect x="90.74" y="299.97" width="27.61" height="2.86" style="fill:#fff;stroke:#263238;stroke-linecap:round;stroke-linejoin:round"></rect><rect x="86.71" y="299.97" width="27.61" height="2.86" style="fill:#fff;stroke:#263238;stroke-linecap:round;stroke-linejoin:round"></rect><rect x="73.24" y="246.43" width="59.94" height="41.65" rx="3.78" style="fill:#263238;stroke:#263238;stroke-linecap:round;stroke-linejoin:round"></rect><rect x="75.79" y="246.43" width="59.94" height="41.65" rx="3.78" style="fill:#263238;stroke:#263238;stroke-linecap:round;stroke-linejoin:round"></rect><path d="M73.24,279.61v4.69A3.78,3.78,0,0,0,77,288.08H129.4a3.78,3.78,0,0,0,3.78-3.78v-4.69Z" style="fill:#fff;stroke:#263238;stroke-linecap:round;stroke-linejoin:round"></path></g><g id="freepik--Character--inject-53"><path d="M127.78,358.57s-4.46-5.07-7.09-6.89a39.67,39.67,0,0,1-5-4.48,4.21,4.21,0,0,0-5.16-.77,5.27,5.27,0,0,0-1.21,1c-2,2.23-6.07,9.11-6.07,10.93s3.64,5.27,3.64,5.27,7.09,6.28,10.73,7.9a74.14,74.14,0,0,0,8.91,3A7.05,7.05,0,0,0,131,369.5C132,365.45,127.78,358.57,127.78,358.57Z" style="fill:#263238;stroke:#263238;stroke-linecap:round;stroke-linejoin:round"></path><path d="M120.69,363c-1.18,3.88.86,8.72,1.58,10.24,2.35.78,4.29,1.3,4.29,1.3A7.05,7.05,0,0,0,131,369.5c1-4.05-3.24-10.93-3.24-10.93C127,359.38,122.11,358.36,120.69,363Z" style="fill:#fff;stroke:#263238;stroke-linecap:round;stroke-linejoin:round"></path><path d="M251.3,369.1s-1.42,5.87-2,8.09a83.43,83.43,0,0,0-1.21,8.71s4.45,2.84,7.89,3.44,1.82,0,1.82,0l1.62-1.82a9.33,9.33,0,0,1,4.05,2c1.83,1.62,5.47,2.43,8.71,3s16,1.83,18.23.61,3.44-2,3-2.63-3.44-2-8.3-4.66-14.58-10.53-15.59-12.75l-1-2.23S257.57,370.92,251.3,369.1Z" style="fill:#263238;stroke:#263238;stroke-linecap:round;stroke-linejoin:round"></path><rect x="280.91" y="279.78" width="78.51" height="65.53" style="fill:#263238;stroke:#263238;stroke-linecap:round;stroke-linejoin:round"></rect><path d="M313.77,252.9l9.53,6.54c.56.37,4.3,12.33,4.3,12.33s1.3,3.92-1.5,4.67-12.52,2.43-12.52,2.43-5.79-8.78-5.79-11a26.78,26.78,0,0,1,.74-5.24Z" style="fill:#fff;stroke:#263238;stroke-linecap:round;stroke-linejoin:round"></path><path d="M331.84,279.92h-3v-7a.36.36,0,0,0-.36-.36H308.65a.36.36,0,0,0-.35.36v6.77h-3V273a3.36,3.36,0,0,1,3.35-3.36h19.83a3.37,3.37,0,0,1,3.36,3.36Z" style="fill:#263238"></path><polygon points="288.35 229.35 309.47 247.66 301.81 261.49 274.9 244.11 288.35 229.35" style="fill:#92E3A9;stroke:#263238;stroke-linecap:round;stroke-linejoin:round"></polygon><polygon points="288.27 232.24 285.64 250.72 277.21 246.34 288.27 232.24" style="fill:#263238;stroke:#263238;stroke-linecap:round;stroke-linejoin:round"></polygon><polygon points="309.47 247.66 315.07 253.08 308.53 262.61 303.3 258.69 309.47 247.66" style="fill:#fff;stroke:#263238;stroke-linecap:round;stroke-linejoin:round"></polygon><path d="M172.93,302.07s4.66,45.76,5.87,50.42,1.62,7.29,1.62,7.29-3.24-.61-3.24.41v1l-49.4-2.63s-3.24,3-3,7.08a40.1,40.1,0,0,0,1.82,8.91s16.81,4.25,38.27,7.7,23.09,4.45,25.11,4.45,10.33.41,13.57-3.64,6.07-6.28,6.88-13,11.14-73.71,11.14-73.71l44.34,2.23-15.79,71.88s5.67,3.85,9.72,4.05,11.34-.4,11.34-.4a21.23,21.23,0,0,0,.61-4.05v-4.05s23.28-60.95,25.91-68.44,7.7-19.64,6.69-25.31-39.49-11.14-42.73-11.14-67.43,48-69.45,48.6S172.93,302.07,172.93,302.07Z" style="fill:#92E3A9;stroke:#263238;stroke-linecap:round;stroke-linejoin:round"></path><path d="M183.07,362.74s3.72,5.06,8.1,6.75" style="fill:none;stroke:#263238;stroke-linecap:round;stroke-linejoin:round"></path><path d="M177.18,361.2s1.85,7.95,7.92,11" style="fill:none;stroke:#263238;stroke-linecap:round;stroke-linejoin:round"></path><polygon points="261.62 261.17 247.85 297.96 230.65 297.96 261.62 261.17" style="fill:#263238;stroke:#263238;stroke-linecap:round;stroke-linejoin:round"></polygon><path d="M270.21,179s-36.69,7.85-47.62,15.13-43.83,46.63-52.38,58.4-13.3,19.6-13.3,19.6,1.68,21.71,11.06,33.06,17.37,21.7,18.77,21.14,30.39-21.42,33.75-25.63,10.92,1,23.53-14.42,29.13-34.87,29.13-34.87,9.52-12.89,15.12-19.19a44.35,44.35,0,0,0,10.65-23.11c1-8.12-4.9-19.88-12.19-25.76S270.21,179,270.21,179Z" style="fill:#92E3A9;stroke:#263238;stroke-linecap:round;stroke-linejoin:round"></path><polyline points="196.83 290.31 181.24 272.71 185.08 269.47 204.52 290.94" style="fill:none;stroke:#263238;stroke-linecap:round;stroke-linejoin:round"></polyline><line x1="203.31" y1="297.62" x2="200.13" y2="294.04" style="fill:none;stroke:#263238;stroke-linecap:round;stroke-linejoin:round"></line><path d="M265.67,180.58a123.7,123.7,0,0,0-8.5,16.6c-3.44,8.51-6.08,17-6.08,17s6.08,2.43,6.68,2.43-7.49,7.9-7.49,7.9a49.75,49.75,0,0,0,1.83,17.21,123.54,123.54,0,0,1,3.44,12.55l4.45-3.44" style="fill:none;stroke:#263238;stroke-linecap:round;stroke-linejoin:round"></path><line x1="252.92" y1="256.11" x2="245.02" y2="264.81" style="fill:none;stroke:#263238;stroke-linecap:round;stroke-linejoin:round"></line><path d="M265.45,196.25s-2.66,16.95-3.64,27.31-.29,25.77-.29,25.77,16.81-15.55,19.33-20.31a61.69,61.69,0,0,0,4.2-11.2s-5.74-10.51-7.7-14.43S270.77,189.25,265.45,196.25Z" style="fill:#fff;stroke:#263238;stroke-linecap:round;stroke-linejoin:round"></path><polygon points="269.93 221.6 273.01 233.5 264.19 301.99 271.89 313.19 279.31 302.13 275.53 233.5 282.67 221.6 277.63 213.19 269.93 221.6" style="fill:#263238;stroke:#263238;stroke-linecap:round;stroke-linejoin:round"></polygon><path d="M276.37,217.12l-11.62,10.22s-1.54-2.8-.7-15.55,2.8-24.08,4.34-28.84,2.52-5.47,2.52-5.47,2.38,20.17,4.34,24.37,14.84,11.77,14.84,11.77-2.24,9.66-3.36,11.76a34,34,0,0,0-1.82,4.06Z" style="fill:#fff;stroke:#263238;stroke-linecap:round;stroke-linejoin:round"></path><path d="M270.21,179s-1.54,12.89,0,19.75,6.16,18.35,6.16,18.35l20.45-7,2.1-1s-1.54-.84-9-7-8-7-8.54-12.46-1.26-9.25-4.34-11.91S270.77,178.18,270.21,179Z" style="fill:#fff;stroke:#263238;stroke-linecap:round;stroke-linejoin:round"></path><polygon points="282.38 200.39 286.83 213.46 298.92 209.13 282.38 200.39" style="fill:#263238;stroke:#263238;stroke-linecap:round;stroke-linejoin:round"></polygon><path d="M239.49,384.72l6.07,5.26s7.09,3,5.47,3.85-5.47-.81-7.09-1.82a24,24,0,0,0-3-1.62Z" style="fill:#fff;stroke:#263238;stroke-linecap:round;stroke-linejoin:round"></path><path d="M233.26,360.61s-1.06,4.47,4.61,19.85c2.11,5.72,8.5,17.42,10.33,19.44s4.65,3.45,2.83,3.85-3-1.21-5.26-2.63-6.08-7.49-6.08-7.49,3.24,6.48,4.66,8.91,3.44,5.66,3.44,5.66-.61,1.62-3.24-.4-4.05-5.06-5.26-6.68a36.82,36.82,0,0,1-2.43-3.85s2.63,7.9,3.44,9.52-1,2.63-2,1-2.08-2.2-2.49-3.41-.75,1.41-4.19-5.7c-1.88-3.9-6.88-9.52-9.11-15s-2.23-3-2.43-7.49.2-12.75.2-12.75Z" style="fill:#fff;stroke:#263238;stroke-linecap:round;stroke-linejoin:round"></path><path d="M235.58,404a48.36,48.36,0,0,0-1.15-6.12,36.18,36.18,0,0,0-3.29-5.7" style="fill:none;stroke:#263238;stroke-linecap:round;stroke-linejoin:round"></path><line x1="236.86" y1="397.27" x2="234.02" y2="391.4" style="fill:none;stroke:#263238;stroke-linecap:round;stroke-linejoin:round"></line><line x1="239.69" y1="393.63" x2="237.67" y2="388.97" style="fill:none;stroke:#263238;stroke-linecap:round;stroke-linejoin:round"></line><path d="M216.81,355l.41,10.53s5.46,1.82,9.11,1.82,8.5-.2,8.5-.2l-.2-11.34Z" style="fill:#fff;stroke:#263238;stroke-linecap:round;stroke-linejoin:round"></path><path d="M221.93,210.35s-8.9,19-9.92,24.09-3,42.12-3.44,49.21,4.19,73.53,4.19,73.53A62.17,62.17,0,0,0,224.91,359a41.28,41.28,0,0,0,11.14-1.21s4.92-80.22,5.32-82.85-.2-4.86-.2-9.11,3.65-32.6,3.65-32.6-2-15.8-6.28-21.87" style="fill:#92E3A9;stroke:#263238;stroke-linecap:round;stroke-linejoin:round"></path><path d="M217.28,227.15s4.65,17,16.4,27.94" style="fill:none;stroke:#263238;stroke-linecap:round;stroke-linejoin:round"></path><path d="M232,266.22a16.38,16.38,0,0,0,4.14,2.64" style="fill:none;stroke:#263238;stroke-linecap:round;stroke-linejoin:round"></path><path d="M216.47,242.34s5.09,12.33,12.05,20.42" style="fill:none;stroke:#263238;stroke-linecap:round;stroke-linejoin:round"></path><path d="M312.46,274.12s-2.48-3.54-3.55-2.72.71,5.32,1.78,6.27,2.72-.12,2.72-.12Z" style="fill:#fff;stroke:#263238;stroke-linecap:round;stroke-linejoin:round"></path><path d="M315.42,270.46s-1.9-2.6-3.67-1.3.83,7.56,1.66,8.39A4.71,4.71,0,0,0,316.6,279a8,8,0,0,0,2.84-.36Z" style="fill:#fff;stroke:#263238;stroke-linecap:round;stroke-linejoin:round"></path><path d="M318.61,269.63s-1.73-3.43-3.35-2.72-.32,3.9.39,5.44a42,42,0,0,0,3.79,6.26c.47.36,3.31.48,3.66-.7a9.1,9.1,0,0,0,.24-2.72Z" style="fill:#fff;stroke:#263238;stroke-linecap:round;stroke-linejoin:round"></path><path d="M326.06,274s-4.26-6.14-5.44-6.38-2.25,1.42-2,2,4,6.86,4.84,7.09,1.63.62,2.65-.28" style="fill:#fff;stroke:#263238;stroke-linecap:round;stroke-linejoin:round"></path><path d="M314.7,261.49s-.19,4.3.56,5.42,2.81,4.11,2.81,4.11-6.73,2.43-5.8,3.93,7.29-.38,9-.94,2.81-.37,3.18-3-.94-8-.94-8" style="fill:#fff;stroke:#263238;stroke-linecap:round;stroke-linejoin:round"></path><rect x="306.01" y="179.61" width="12.47" height="8.56" rx="2.44" transform="translate(9.1 -14.64) rotate(2.73)" style="fill:none;stroke:#263238;stroke-linecap:round;stroke-linejoin:round"></rect><path d="M313.66,163.87s1.23-.86,1.11-2-.87-5.56-5.81-9.77-14.46-8.15-22.74-6.79-14.46,9.39-15.94,13.59-.49,16.81-.49,18.29,1.85,6.05,3.7,6.55.87-6.3,2.6-5.07,6.43,6.18,8.16,4.2,2.22-6.79,3.7-7,7.17-2.72,6.8-5.19-3.21-8.53-.37-9.51,7,2.34,12.73,2.84S313.66,163.87,313.66,163.87Z" style="fill:#263238;stroke:#263238;stroke-linecap:round;stroke-linejoin:round"></path><path d="M283.63,180.31s-1.73-.12-2-.5-2.59-5.68-5.19-6.05-3.83,7.41-2.47,11.62a5.39,5.39,0,0,0,5.07,4.07s.12,11,3.46,13.23,18.16,10.87,21,10.62,4.08-2.84,4.45-4.94.25-2.72.37-3.46,2.47-9.39,2.47-9.39,4.82-1,4.95-1.61-2.6-11.24-2.6-11.24,2.1-2.6,2.23-3.71.12-9.52-.38-11.49-3.08-7.05-4.07-6.68a4.55,4.55,0,0,1-3.59-.37c-1-.61-10.62-4.2-12.85-4.07s-6.42,2.84-6.79,5.19,3.46,6.05,3.7,7.78-5.93,3-6.05,3.83S284.74,179.57,283.63,180.31Z" style="fill:#fff;stroke:#263238;stroke-linecap:round;stroke-linejoin:round"></path><line x1="307.04" y1="200.59" x2="304.1" y2="199.75" style="fill:none;stroke:#263238;stroke-linecap:round;stroke-linejoin:round"></line><rect x="296.5" y="178.96" width="12.47" height="8.56" rx="2.44" transform="translate(9.06 -14.19) rotate(2.73)" style="fill:none;stroke:#263238;stroke-linecap:round;stroke-linejoin:round"></rect><path d="M304,183.54c-.13,1-.58,1.69-1,1.63s-.66-.88-.52-1.84.58-1.69,1-1.63S304.08,182.58,304,183.54Z" style="fill:#263238"></path><path d="M298.92,177.2s5.48-.62,7.81,1.94" style="fill:none;stroke:#263238;stroke-linecap:round;stroke-linejoin:round"></path><line x1="296.6" y1="181.11" x2="280.99" y2="177.76" style="fill:none;stroke:#263238;stroke-linecap:round;stroke-linejoin:round"></line><path d="M309.05,181.7s2.38-1.66,4.38.11" style="fill:none;stroke:#263238;stroke-linecap:round;stroke-linejoin:round"></path><line x1="307.91" y1="179.44" x2="314.86" y2="179.91" style="fill:none;stroke:#263238;stroke-linecap:round;stroke-linejoin:round"></line></g><g id="freepik--finish-line--inject-53"><line x1="435.16" y1="337.58" x2="91.42" y2="472.59" style="fill:none;stroke:#263238;stroke-linecap:round;stroke-linejoin:round"></line><line x1="444.96" y1="347.2" x2="108.49" y2="480.35" style="fill:none;stroke:#263238;stroke-linecap:round;stroke-linejoin:round"></line></g></svg>
